<svg xmlns="http://www.w3.org/2000/svg" width="512" height="512" style="" viewBox="0 0 512 512" data-svgdocument="" id="_eg90l3bab_1" class="fl-svgdocument" x="0" y="0">
	<path id="_eg90l3bab_209" transform="matrix(1.4435395002365112, 0, 0, 1.4435395002365112, 189.95411682128906, 152.92025756835938)" fill="#7dccab" data-type="circle" data-cx="50" data-cy="50" data-r="50" d="M50,50m-50,0a50,50 0 1, 0 100,0a50,50 0 1, 0 -100,0"></path><path id="_eg90l3bab_128" d="M8,4 C5.789,4 4,2.211 4,0 C4,2.211 2.211,4 0,4 C2.211,4 4,5.789 4,8 C4,5.789 5.789,4 8,4 L8,4 Z" transform="matrix(2.7967159748077393, 0, 0, 2.7967159748077393, 180.48866271972656, 143.34962463378906)" stroke="#1e252a" stroke-width="2" stroke-linecap="round" fill="#d8c39b" stroke-linejoin="round"></path><path id="_eg90l3bab_129" d="M28.1744,44 L50.0004,44" transform="matrix(2.7967159748077393, 0, 0, 2.7967159748077393, 180.48866271972656, 143.34962463378906)" stroke="#1e252a" stroke-width="2" stroke-linecap="round" fill="#1e252a"></path><path id="_eg90l3bab_130" d="M8,44 L21.943,44" stroke="#1e252a" stroke-width="2" transform="matrix(2.7967159748077393, 0, 0, 2.7967159748077393, 180.48866271972656, 143.34962463378906)" stroke-linecap="round" fill="#1e252a"></path><path id="_eg90l3bab_131" d="M7.7371,32 L4.0001,32" stroke="#1e252a" stroke-width="2" transform="matrix(2.7967159748077393, 0, 0, 2.7967159748077393, 180.48866271972656, 143.34962463378906)" stroke-linecap="round" fill="#1e252a"></path><path id="_eg90l3bab_132" d="M34,32 L15,32" stroke="#1e252a" stroke-width="2" stroke-linecap="round" transform="matrix(2.7967159748077393, 0, 0, 2.7967159748077393, 180.48866271972656, 143.34962463378906)" fill="#1e252a"></path><path id="_eg90l3bab_133" d="M42,38 L21,38" stroke="#1e252a" stroke-width="2" stroke-linecap="round" transform="matrix(2.7967159748077393, 0, 0, 2.7967159748077393, 180.48866271972656, 143.34962463378906)" fill="#1e252a"></path><path id="_eg90l3bab_134" d="M30,49 L13,49" stroke="#1e252a" stroke-width="2" stroke-linecap="round" transform="matrix(2.7967159748077393, 0, 0, 2.7967159748077393, 180.48866271972656, 143.34962463378906)" fill="#1e252a"></path><path id="_eg90l3bab_135" d="M33,26 L23,26" stroke="#1e252a" stroke-width="2" stroke-linecap="round" transform="matrix(2.7967159748077393, 0, 0, 2.7967159748077393, 180.48866271972656, 143.34962463378906)" fill="#1e252a"></path><path id="_eg90l3bab_136" d="M14,26 L4,26" stroke="#1e252a" stroke-width="2" stroke-linecap="round" transform="matrix(2.7967159748077393, 0, 0, 2.7967159748077393, 180.48866271972656, 143.34962463378906)" fill="#1e252a"></path><path id="_eg90l3bab_137" d="M32,15 L22,15" stroke="#1e252a" stroke-width="2" stroke-linecap="round" transform="matrix(2.7967159748077393, 0, 0, 2.7967159748077393, 180.48866271972656, 143.34962463378906)" fill="#1e252a"></path><path id="_eg90l3bab_138" d="M54,32 L42,32" stroke="#1e252a" stroke-width="2" stroke-linecap="round" transform="matrix(2.7967159748077393, 0, 0, 2.7967159748077393, 180.48866271972656, 143.34962463378906)" fill="#1e252a"></path><path id="_eg90l3bab_139" d="M25.6229,9 L12.9999,9" stroke="#1e252a" stroke-width="2" stroke-linecap="round" transform="matrix(2.7967159748077393, 0, 0, 2.7967159748077393, 180.48866271972656, 143.34962463378906)" fill="#1e252a"></path><path id="_eg90l3bab_140" d="M38,9 L32,9" stroke="#1e252a" stroke-width="2" stroke-linecap="round" transform="matrix(2.7967159748077393, 0, 0, 2.7967159748077393, 180.48866271972656, 143.34962463378906)" fill="#1e252a"></path><path id="_eg90l3bab_141" d="M30.2629,21 L52.9999,21" stroke="#1e252a" stroke-width="2" stroke-linecap="round" transform="matrix(2.7967159748077393, 0, 0, 2.7967159748077393, 180.48866271972656, 143.34962463378906)" fill="#1e252a"></path><path id="_eg90l3bab_142" d="M5,21 L23.661,21" transform="matrix(2.7967159748077393, 0, 0, 2.7967159748077393, 180.48866271972656, 143.34962463378906)" fill="#1e252a" stroke="#1e252a" stroke-width="2" stroke-linecap="round"></path><path id="_eg90l3bab_152" d="M40,68.5c-15.7,0-28.5-12.8-28.5-28.5S24.3,11.5,40,11.5S68.5,24.3,68.5,40S55.7,68.5,40,68.5z M40,13.5   c-14.6,0-26.5,11.9-26.5,26.5S25.4,66.5,40,66.5S66.5,54.6,66.5,40S54.6,13.5,40,13.5z" transform="matrix(2.630389928817749, 0, 0, 2.630389928817749, 155.87588500976562, 119.88162231445312)" fill="#1e252a"></path><path id="_eg90l3bab_123" d="M53,52 C53,52.552 52.552,53 52,53 C51.448,53 51,52.552 51,52 C51,51.448 51.448,51 52,51 C52.552,51 53,51.448 53,52" transform="matrix(2.7967159748077393, 0, 0, 2.7967159748077393, 180.48866271972656, 143.34962463378906)" stroke="none" fill="#1e252a" stroke-width="1"></path><path id="_eg90l3bab_124" d="M57,9 C57,9.552 56.552,10 56,10 C55.448,10 55,9.552 55,9 C55,8.448 55.448,8 56,8 C56.552,8 57,8.448 57,9" stroke="none" transform="matrix(2.7967159748077393, 0, 0, 2.7967159748077393, 180.48866271972656, 143.34962463378906)" fill="#1e252a" stroke-width="1"></path><path id="_eg90l3bab_125" d="M7,56 C7,56.552 6.552,57 6,57 C5.448,57 5,56.552 5,56 C5,55.448 5.448,55 6,55 C6.552,55 7,55.448 7,56" stroke="none" transform="matrix(2.7967159748077393, 0, 0, 2.7967159748077393, 180.48866271972656, 143.34962463378906)" fill="#1e252a" stroke-width="1"></path><path id="_eg90l3bab_126" d="M50,8 C50,11.314 47.314,14 44,14 C40.686,14 38,11.314 38,8 C38,4.686 40.686,2 44,2 C47.314,2 50,4.686 50,8 L50,8 Z" transform="matrix(2.7967159748077393, 0, 0, 2.7967159748077393, 180.48866271972656, 143.34962463378906)" stroke="#1e252a" stroke-width="2" fill="#d8c39b"></path><path id="_eg90l3bab_127" d="M43,53 C43,55.209 41.209,57 39,57 C36.791,57 35,55.209 35,53 C35,50.791 36.791,49 39,49 C41.209,49 43,50.791 43,53 L43,53 Z" stroke="#1e252a" stroke-width="2" transform="matrix(2.7967159748077393, 0, 0, 2.7967159748077393, 180.48866271972656, 143.34962463378906)" fill="#d8c39b"></path><path text="Titanic Fitness" fill="#1e252a" transform="matrix(1.166298508644104, 0, 0, 1.166298508644104, 256.0023193359375, 358.23291015625)" space="preserve" text-anchor="middle" offset="0.5" font-scale="contain" font-size="48" font-family="Fredoka One" data-fl-textpath="" id="_eg90l3bab_225" font-weight="400" font-style="normal" d="M-167.14-35.23L-167.14-35.23L-140.45-35.23Q-138.90999999999997-35.23 -138.19-34.87Q-137.46999999999997-34.51 -137.23-33.74Q-136.98999999999998-32.98 -136.98999999999998-31.73Q-136.98999999999998-30.48 -137.23-29.74Q-137.46999999999997-28.99 -138.04999999999998-28.7L-138.04999999999998-28.7Q-138.90999999999997-28.27 -140.5-28.27L-140.5-28.27L-149.66-28.27L-149.66-4.13Q-149.66-3.02 -149.73999999999998-2.5Q-149.80999999999997-1.97 -150.17-1.27Q-150.52999999999997-0.58 -151.44-0.29Q-152.35 0 -153.83999999999997 0Q-155.32999999999998 0 -156.21999999999997-0.29Q-157.1-0.58 -157.45999999999998-1.27Q-157.82-1.97 -157.89999999999998-2.52Q-157.96999999999997-3.07 -157.96999999999997-4.18L-157.96999999999997-4.18L-157.96999999999997-28.27L-167.17999999999998-28.27Q-168.72-28.27 -169.44-28.63Q-170.16-28.99 -170.39999999999998-29.76Q-170.64-30.53 -170.64-31.78Q-170.64-33.02 -170.39999999999998-33.77Q-170.16-34.51 -169.57999999999998-34.8L-169.57999999999998-34.8Q-168.72-35.23 -167.14-35.23ZM-134.352-4.22L-134.352-21.07Q-134.352-22.18 -134.28199999999998-22.73Q-134.212-23.28 -133.87199999999999-24L-133.87199999999999-24Q-133.202-25.25 -130.132-25.25L-130.132-25.25Q-127.82199999999999-25.25 -126.862-24.43L-126.862-24.43Q-126.05199999999999-23.76 -126.002-22.37L-126.002-22.37Q-125.952-21.89 -125.952-20.98L-125.952-20.98L-125.952-4.18Q-125.952-3.07 -126.02199999999999-2.52Q-126.09199999999998-1.97 -126.482-1.25L-126.482-1.25Q-127.10199999999999 0 -130.172 0L-130.172 0Q-133.202 0 -133.87199999999999-1.3L-133.87199999999999-1.3Q-134.212-2.02 -134.28199999999998-2.54Q-134.352-3.07 -134.352-4.22L-134.352-4.22ZM-126.452-29.98Q-126.81199999999998-29.28 -127.732-28.99Q-128.642-28.7 -130.152-28.7Q-131.66199999999998-28.7 -132.572-28.99Q-133.492-29.28 -133.852-30Q-134.212-30.72 -134.28199999999998-31.27Q-134.352-31.82 -134.352-32.93Q-134.352-34.03 -134.28199999999998-34.58Q-134.212-35.14 -133.87199999999999-35.81L-133.87199999999999-35.81Q-133.202-37.1 -130.132-37.1L-130.132-37.1Q-127.10199999999999-37.1 -126.482-35.81L-126.482-35.81Q-126.09199999999998-35.09 -126.02199999999999-34.54Q-125.952-33.98 -125.952-32.88Q-125.952-31.78 -126.02199999999999-31.22Q-126.09199999999998-30.67 -126.452-29.98ZM-107.422-16.8L-107.422-16.8L-110.542-16.99L-110.542-10.37Q-110.542-9.07 -110.13199999999999-8.5Q-109.732-7.92 -108.602-7.92Q-107.472-7.92 -106.872-7.85Q-106.27199999999999-7.78 -105.602-7.39L-105.602-7.39Q-104.49199999999999-6.77 -104.49199999999999-4.18L-104.49199999999999-4.18Q-104.49199999999999-1.15 -105.842-0.48L-105.842-0.48Q-106.562-0.14 -107.112-0.07Q-107.66199999999999 0 -108.722 0L-108.722 0Q-113.71199999999999 0 -116.30199999999999-2.26Q-118.892-4.51 -118.892-9.89L-118.892-9.89L-118.892-16.99Q-119.812-16.85 -120.862-16.85Q-121.922-16.85 -122.612-17.66Q-123.312-18.48 -123.312-20.45Q-123.312-22.42 -123.072-23.3Q-122.832-24.19 -122.402-24.58L-122.402-24.58Q-121.63199999999999-25.2 -120.482-25.2L-120.482-25.2L-118.892-25.01L-118.892-29.95Q-118.892-31.06 -118.822-31.58Q-118.752-32.11 -118.372-32.74L-118.372-32.74Q-117.74199999999999-33.94 -114.672-33.94L-114.672-33.94Q-111.41199999999999-33.94 -110.782-32.16L-110.782-32.16Q-110.542-31.39 -110.542-29.71L-110.542-29.71L-110.542-25.01Q-108.432-25.2 -107.352-25.2Q-106.27199999999999-25.2 -105.722-25.13Q-105.172-25.06 -104.452-24.67L-104.452-24.67Q-103.202-24.05 -103.202-20.98L-103.202-20.98Q-103.202-17.95 -104.49199999999999-17.28L-104.49199999999999-17.28Q-105.21199999999999-16.94 -105.77199999999999-16.87Q-106.322-16.8 -107.422-16.8ZM-84.13999999999999-22.61L-84.13999999999999-22.61Q-83.85999999999999-25.3 -80.35-25.3L-80.35-25.3Q-78.47999999999999-25.3 -77.57-25.01Q-76.66-24.72 -76.29999999999998-24Q-75.94-23.28 -75.85999999999999-22.73Q-75.78999999999999-22.18 -75.78999999999999-21.07L-75.78999999999999-21.07L-75.78999999999999-4.27Q-75.78999999999999-3.17 -75.85999999999999-2.62Q-75.94-2.06 -76.26999999999998-1.34L-76.26999999999998-1.34Q-76.94-0.1 -79.55999999999999-0.1Q-82.17999999999999-0.1 -83.05999999999999-0.74Q-83.94999999999999-1.39 -84.1-2.64L-84.1-2.64Q-85.86999999999999-0.1 -90.01999999999998-0.1Q-94.17999999999999-0.1 -97.72999999999999-3.89Q-101.27999999999999-7.68 -101.27999999999999-12.7Q-101.27999999999999-17.71 -97.69999999999999-21.48Q-94.13-25.25 -89.85999999999999-25.25L-89.85999999999999-25.25Q-88.21999999999998-25.25 -86.88-24.67Q-85.53999999999999-24.1 -85.00999999999999-23.59Q-84.47999999999999-23.09 -84.13999999999999-22.61ZM-92.88-12.62Q-92.88-11.04 -91.63-9.77Q-90.38-8.5 -88.60999999999999-8.5Q-86.82999999999998-8.5 -85.66-9.79Q-84.47999999999999-11.09 -84.47999999999999-12.65Q-84.47999999999999-14.21 -85.60999999999999-15.55Q-86.74-16.9 -88.63-16.9Q-90.52999999999999-16.9 -91.69999999999999-15.55Q-92.88-14.21 -92.88-12.62ZM-57.89199999999998-25.3L-57.89199999999998-25.3Q-53.091999999999985-25.3 -49.89199999999998-21.62Q-46.701999999999984-17.95 -46.701999999999984-12.67L-46.701999999999984-12.67L-46.701999999999984-4.22Q-46.701999999999984-3.12 -46.771999999999984-2.57Q-46.85199999999999-2.02 -47.18199999999999-1.34L-47.18199999999999-1.34Q-47.85199999999999-0.05 -50.93199999999999-0.05L-50.93199999999999-0.05Q-54.33199999999999-0.05 -54.86199999999998-1.82L-54.86199999999998-1.82Q-55.15199999999999-2.64 -55.15199999999999-4.27L-55.15199999999999-4.27L-55.15199999999999-12.72Q-55.15199999999999-14.69 -56.28199999999998-15.79Q-57.411999999999985-16.9 -59.301999999999985-16.9Q-61.201999999999984-16.9 -62.371999999999986-15.74Q-63.551999999999985-14.59 -63.551999999999985-12.72L-63.551999999999985-12.72L-63.551999999999985-4.22Q-63.551999999999985-3.12 -63.621999999999986-2.57Q-63.691999999999986-2.02 -64.082-1.34L-64.082-1.34Q-64.70199999999998-0.05 -67.77199999999999-0.05L-67.77199999999999-0.05Q-70.80199999999999-0.05 -71.47199999999998-1.34L-71.47199999999998-1.34Q-71.81199999999998-2.06 -71.88199999999999-2.62Q-71.95199999999998-3.17 -71.95199999999998-4.27L-71.95199999999998-4.27L-71.95199999999998-21.26Q-71.95199999999998-22.32 -71.88199999999999-22.87Q-71.81199999999998-23.42 -71.42199999999998-24.1L-71.42199999999998-24.1Q-70.75199999999998-25.3 -67.73199999999999-25.3L-67.73199999999999-25.3Q-64.80199999999999-25.3 -64.13199999999999-24.19L-64.13199999999999-24.19Q-63.65199999999999-23.38 -63.65199999999999-22.22L-63.65199999999999-22.22Q-63.451999999999984-22.56 -62.78199999999998-23.18Q-62.11199999999999-23.81 -61.49199999999998-24.19L-61.49199999999998-24.19Q-59.85199999999999-25.3 -57.89199999999998-25.3ZM-42.86399999999998-4.22L-42.86399999999998-21.07Q-42.86399999999998-22.18 -42.79399999999998-22.73Q-42.72399999999998-23.28 -42.383999999999986-24L-42.383999999999986-24Q-41.713999999999984-25.25 -38.643999999999984-25.25L-38.643999999999984-25.25Q-36.33399999999999-25.25 -35.37399999999998-24.43L-35.37399999999998-24.43Q-34.563999999999986-23.76 -34.51399999999998-22.37L-34.51399999999998-22.37Q-34.463999999999984-21.89 -34.463999999999984-20.98L-34.463999999999984-20.98L-34.463999999999984-4.18Q-34.463999999999984-3.07 -34.533999999999985-2.52Q-34.603999999999985-1.97 -34.993999999999986-1.25L-34.993999999999986-1.25Q-35.61399999999998 0 -38.68399999999998 0L-38.68399999999998 0Q-41.713999999999984 0 -42.383999999999986-1.3L-42.383999999999986-1.3Q-42.72399999999998-2.02 -42.79399999999998-2.54Q-42.86399999999998-3.07 -42.86399999999998-4.22L-42.86399999999998-4.22ZM-34.963999999999984-29.98Q-35.323999999999984-29.28 -36.243999999999986-28.99Q-37.15399999999998-28.7 -38.66399999999999-28.7Q-40.173999999999985-28.7 -41.08399999999998-28.99Q-42.003999999999984-29.28 -42.36399999999998-30Q-42.72399999999998-30.72 -42.79399999999998-31.27Q-42.86399999999998-31.82 -42.86399999999998-32.93Q-42.86399999999998-34.03 -42.79399999999998-34.58Q-42.72399999999998-35.14 -42.383999999999986-35.81L-42.383999999999986-35.81Q-41.713999999999984-37.1 -38.643999999999984-37.1L-38.643999999999984-37.1Q-35.61399999999998-37.1 -34.993999999999986-35.81L-34.993999999999986-35.81Q-34.603999999999985-35.09 -34.533999999999985-34.54Q-34.463999999999984-33.98 -34.463999999999984-32.88Q-34.463999999999984-31.78 -34.533999999999985-31.22Q-34.603999999999985-30.67 -34.963999999999984-29.98ZM-22.703999999999983-12.65Q-22.703999999999983-10.61 -21.363999999999983-9.48Q-20.01399999999998-8.35 -18.503999999999984-8.35Q-16.993999999999982-8.35 -15.673999999999982-9.24Q-14.353999999999981-10.13 -13.533999999999981-10.13L-13.533999999999981-10.13Q-12.093999999999983-10.13 -10.033999999999981-7.58L-10.033999999999981-7.58Q-8.923999999999982-6.19 -8.923999999999982-5.09L-8.923999999999982-5.09Q-8.923999999999982-3.26 -11.563999999999982-1.68L-11.563999999999982-1.68Q-14.303999999999984 0.24 -18.283999999999985 0.24L-18.283999999999985 0.24Q-22.753999999999984 0.24 -26.883999999999983-2.98L-26.883999999999983-2.98Q-28.843999999999983-4.51 -30.093999999999983-7.08Q-31.343999999999983-9.65 -31.343999999999983-12.74Q-31.343999999999983-15.84 -30.093999999999983-18.36Q-28.843999999999983-20.88 -26.883999999999983-22.42L-26.883999999999983-22.42Q-22.893999999999984-25.58 -18.383999999999983-25.58L-18.383999999999983-25.58Q-16.563999999999982-25.58 -14.833999999999982-25.08Q-13.103999999999981-24.58 -12.283999999999981-24.1L-12.283999999999981-24.1L-11.523999999999983-23.62Q-10.653999999999982-23.04 -10.173999999999982-22.7L-10.173999999999982-22.7Q-8.923999999999982-21.74 -8.923999999999982-20.52Q-8.923999999999982-19.3 -9.933999999999983-17.76L-9.933999999999983-17.76Q-11.663999999999984-15.12 -13.243999999999982-15.12L-13.243999999999982-15.12Q-14.163999999999984-15.12 -15.843999999999983-16.18L-15.843999999999983-16.18Q-16.703999999999983-16.99 -18.313999999999982-16.99Q-19.923999999999985-16.99 -21.313999999999982-15.84Q-22.703999999999983-14.69 -22.703999999999983-12.65ZM 10.706000000000017-35.18L 29.616000000000017-35.18Q 30.71600000000002-35.18  31.276000000000018-35.11Q 31.82600000000002-35.04  32.51600000000002-34.66Q 33.21600000000002-34.27  33.506000000000014-33.36Q 33.79600000000002-32.45  33.79600000000002-30.91Q 33.79600000000002-29.38  33.506000000000014-28.46Q 33.21600000000002-27.55  32.496000000000016-27.19Q 31.776000000000018-26.83  31.226000000000017-26.76Q 30.67600000000002-26.69  29.51600000000002-26.69L 29.51600000000002-26.69L 14.836000000000018-26.69L 14.836000000000018-21.84L 24.28600000000002-21.84Q 25.436000000000018-21.84  25.996000000000016-21.77Q 26.546000000000017-21.7  27.26600000000002-21.31L 27.26600000000002-21.31Q 28.51600000000002-20.59  28.51600000000002-17.52L 28.51600000000002-17.52Q 28.51600000000002-14.16  26.686000000000018-13.54L 26.686000000000018-13.54Q 25.916000000000018-13.3  24.23600000000002-13.3L 24.23600000000002-13.3L 14.836000000000018-13.3L 14.836000000000018-4.22Q 14.836000000000018-3.07  14.756000000000018-2.54Q 14.686000000000018-2.02  14.306000000000019-1.3L 14.306000000000019-1.3Q 13.636000000000019 0  10.556000000000019 0L 10.556000000000019 0Q 7.1960000000000175 0  6.626000000000018-1.82L 6.626000000000018-1.82Q 6.336000000000018-2.59  6.336000000000018-4.27L 6.336000000000018-4.27L 6.336000000000018-30.96Q 6.336000000000018-33.41  7.246000000000018-34.3Q 8.156000000000018-35.18  10.706000000000017-35.18L 10.706000000000017-35.18ZM 35.95200000000002-4.22L 35.95200000000002-21.07Q 35.95200000000002-22.18  36.02200000000002-22.73Q 36.09200000000002-23.28  36.432000000000016-24L 36.432000000000016-24Q 37.10200000000002-25.25  40.17200000000002-25.25L 40.17200000000002-25.25Q 42.48200000000001-25.25  43.44200000000002-24.43L 43.44200000000002-24.43Q 44.25200000000002-23.76  44.30200000000002-22.37L 44.30200000000002-22.37Q 44.35200000000002-21.89  44.35200000000002-20.98L 44.35200000000002-20.98L 44.35200000000002-4.18Q 44.35200000000002-3.07  44.28200000000002-2.52Q 44.21200000000002-1.97  43.82200000000002-1.25L 43.82200000000002-1.25Q 43.20200000000002 0  40.13200000000002 0L 40.13200000000002 0Q 37.10200000000002 0  36.432000000000016-1.3L 36.432000000000016-1.3Q 36.09200000000002-2.02  36.02200000000002-2.54Q 35.95200000000002-3.07  35.95200000000002-4.22L 35.95200000000002-4.22ZM 43.85200000000002-29.98Q 43.49200000000002-29.28  42.57200000000002-28.99Q 41.66200000000002-28.7  40.152000000000015-28.7Q 38.64200000000002-28.7  37.73200000000002-28.99Q 36.81200000000002-29.28  36.45200000000002-30Q 36.09200000000002-30.72  36.02200000000002-31.27Q 35.95200000000002-31.82  35.95200000000002-32.93Q 35.95200000000002-34.03  36.02200000000002-34.58Q 36.09200000000002-35.14  36.432000000000016-35.81L 36.432000000000016-35.81Q 37.10200000000002-37.1  40.17200000000002-37.1L 40.17200000000002-37.1Q 43.20200000000002-37.1  43.82200000000002-35.81L 43.82200000000002-35.81Q 44.21200000000002-35.09  44.28200000000002-34.54Q 44.35200000000002-33.98  44.35200000000002-32.88Q 44.35200000000002-31.78  44.28200000000002-31.22Q 44.21200000000002-30.67  43.85200000000002-29.98ZM 62.88200000000002-16.8L 62.88200000000002-16.8L 59.76200000000002-16.99L 59.76200000000002-10.37Q 59.76200000000002-9.07  60.17200000000002-8.5Q 60.57200000000002-7.92  61.70200000000002-7.92Q 62.83200000000002-7.92  63.432000000000016-7.85Q 64.03200000000002-7.78  64.70200000000003-7.39L 64.70200000000003-7.39Q 65.81200000000001-6.77  65.81200000000001-4.18L 65.81200000000001-4.18Q 65.81200000000001-1.15  64.46200000000002-0.48L 64.46200000000002-0.48Q 63.74200000000002-0.14  63.19200000000002-0.07Q 62.642000000000024 0  61.58200000000002 0L 61.58200000000002 0Q 56.59200000000002 0  54.002000000000024-2.26Q 51.41200000000002-4.51  51.41200000000002-9.89L 51.41200000000002-9.89L 51.41200000000002-16.99Q 50.49200000000002-16.85  49.44200000000002-16.85Q 48.38200000000002-16.85  47.69200000000002-17.66Q 46.99200000000002-18.48  46.99200000000002-20.45Q 46.99200000000002-22.42  47.23200000000002-23.3Q 47.47200000000002-24.19  47.90200000000002-24.58L 47.90200000000002-24.58Q 48.67200000000002-25.2  49.82200000000002-25.2L 49.82200000000002-25.2L 51.41200000000002-25.01L 51.41200000000002-29.95Q 51.41200000000002-31.06  51.48200000000002-31.58Q 51.55200000000002-32.11  51.932000000000016-32.74L 51.932000000000016-32.74Q 52.56200000000002-33.94  55.63200000000002-33.94L 55.63200000000002-33.94Q 58.89200000000002-33.94  59.52200000000002-32.16L 59.52200000000002-32.16Q 59.76200000000002-31.39  59.76200000000002-29.71L 59.76200000000002-29.71L 59.76200000000002-25.01Q 61.87200000000002-25.2  62.95200000000002-25.2Q 64.03200000000002-25.2  64.58200000000002-25.13Q 65.13200000000002-25.06  65.85200000000002-24.67L 65.85200000000002-24.67Q 67.10200000000002-24.05  67.10200000000002-20.98L 67.10200000000002-20.98Q 67.10200000000002-17.95  65.81200000000001-17.28L 65.81200000000001-17.28Q 65.09200000000001-16.94  64.53200000000002-16.87Q 63.98200000000002-16.8  62.88200000000002-16.8ZM 83.80400000000002-25.3L 83.80400000000002-25.3Q 88.60400000000001-25.3  91.80400000000002-21.62Q 94.99400000000001-17.95  94.99400000000001-12.67L 94.99400000000001-12.67L 94.99400000000001-4.22Q 94.99400000000001-3.12  94.924-2.57Q 94.84400000000001-2.02  94.51400000000001-1.34L 94.51400000000001-1.34Q 93.84400000000001-0.05  90.76400000000001-0.05L 90.76400000000001-0.05Q 87.364-0.05  86.83400000000002-1.82L 86.83400000000002-1.82Q 86.54400000000001-2.64  86.54400000000001-4.27L 86.54400000000001-4.27L 86.54400000000001-12.72Q 86.54400000000001-14.69  85.41400000000002-15.79Q 84.28400000000002-16.9  82.394-16.9Q 80.49400000000001-16.9  79.32400000000001-15.74Q 78.144-14.59  78.144-12.72L 78.144-12.72L 78.144-4.22Q 78.144-3.12  78.07400000000001-2.57Q 78.00400000000002-2.02  77.614-1.34L 77.614-1.34Q 76.99400000000001-0.05  73.924-0.05L 73.924-0.05Q 70.894-0.05  70.22400000000002-1.34L 70.22400000000002-1.34Q 69.88400000000001-2.06  69.81400000000001-2.62Q 69.74400000000001-3.17  69.74400000000001-4.27L 69.74400000000001-4.27L 69.74400000000001-21.26Q 69.74400000000001-22.32  69.81400000000001-22.87Q 69.88400000000001-23.42  70.27400000000002-24.1L 70.27400000000002-24.1Q 70.94400000000002-25.3  73.96400000000001-25.3L 73.96400000000001-25.3Q 76.894-25.3  77.56400000000001-24.19L 77.56400000000001-24.19Q 78.04400000000001-23.38  78.04400000000001-22.22L 78.04400000000001-22.22Q 78.24400000000001-22.56  78.91400000000002-23.18Q 79.58400000000002-23.81  80.20400000000001-24.19L 80.20400000000001-24.19Q 81.84400000000001-25.3  83.80400000000002-25.3ZM 123.212-15.67Q 123.212-12.72  121.75200000000001-11.3Q 120.292-9.89  118.512-9.89L 118.512-9.89L 107.132-9.89Q 107.132-8.54  108.72200000000001-7.63Q 110.302-6.72  111.89200000000001-6.72L 111.89200000000001-6.72Q 114.67200000000001-6.72  116.25200000000001-7.3L 116.25200000000001-7.3L 116.78200000000001-7.49Q 117.932-8.02  118.702-8.02L 118.702-8.02Q 120.242-8.02  121.34200000000001-5.86L 121.34200000000001-5.86Q 121.97200000000001-4.56  121.97200000000001-3.65L 121.97200000000001-3.65Q 121.97200000000001 0.62  111.742 0.62L 111.742 0.62Q 108.19200000000001 0.62  105.432-0.6Q 102.67200000000001-1.82  101.132-3.84L 101.132-3.84Q 98.11200000000001-7.73  98.11200000000001-12.53L 98.11200000000001-12.53Q 98.11200000000001-18.58  102.022-22.2Q 105.932-25.82  111.792-25.82L 111.792-25.82Q 118.462-25.82  121.58200000000001-21.12L 121.58200000000001-21.12Q 123.212-18.62  123.212-15.67ZM 107.042-14.26L 113.09200000000001-14.26Q 114.912-14.26  114.912-15.79L 114.912-15.79Q 114.912-16.9  114.072-17.57Q 113.232-18.24  111.67200000000001-18.24Q 110.11200000000001-18.24  108.572-16.97Q 107.042-15.7  107.042-14.26L 107.042-14.26ZM 126.52600000000001-2.26L 126.52600000000001-2.26Q 125.61600000000001-2.83  125.61600000000001-4.08Q 125.61600000000001-5.33  127.436-7.87L 127.436-7.87Q 127.96600000000001-8.69  129.14600000000002-8.69Q 130.316-8.69  132.336-7.51Q 134.35600000000002-6.34  135.98600000000002-6.34L 135.98600000000002-6.34Q 138.916-6.34  138.916-7.49L 138.916-7.49Q 138.916-8.4  135.696-8.83L 135.696-8.83Q 132.67600000000002-9.26  129.696-11.09L 129.696-11.09Q 128.306-11.95  127.39600000000002-13.8Q 126.47600000000001-15.65  126.47600000000001-18.19L 126.47600000000001-18.19Q 126.47600000000001-25.78  136.89600000000002-25.78L 136.89600000000002-25.78Q 140.306-25.78  143.906-24.14L 143.906-24.14Q 145.586-23.38  145.586-22.22Q 145.586-21.07  144.526-19.39Q 143.476-17.71  142.366-17.71L 142.366-17.71Q 141.79600000000002-17.71  140.23600000000002-18.43Q 138.67600000000002-19.15  136.846-19.15L 136.846-19.15Q 134.01600000000002-19.15  134.01600000000002-18.1L 134.01600000000002-18.1Q 134.01600000000002-16.66  137.276-16.22L 137.276-16.22Q 140.44600000000003-15.89  143.42600000000002-14.4L 143.42600000000002-14.4Q 144.816-13.73  145.756-12.07Q 146.686-10.42  146.686-7.92Q 146.686-5.42  145.756-3.67Q 144.816-1.92  143.13600000000002-1.06L 143.13600000000002-1.06Q 140.066 0.43  135.436 0.43Q 130.79600000000002 0.43  126.52600000000001-2.26ZM 149.99800000000002-2.26L 149.99800000000002-2.26Q 149.088-2.83  149.088-4.08Q 149.088-5.33  150.90800000000002-7.87L 150.90800000000002-7.87Q 151.43800000000002-8.69  152.618-8.69Q 153.788-8.69  155.808-7.51Q 157.828-6.34  159.458-6.34L 159.458-6.34Q 162.388-6.34  162.388-7.49L 162.388-7.49Q 162.388-8.4  159.168-8.83L 159.168-8.83Q 156.148-9.26  153.168-11.09L 153.168-11.09Q 151.778-11.95  150.868-13.8Q 149.948-15.65  149.948-18.19L 149.948-18.19Q 149.948-25.78  160.368-25.78L 160.368-25.78Q 163.77800000000002-25.78  167.37800000000001-24.14L 167.37800000000001-24.14Q 169.058-23.38  169.058-22.22Q 169.058-21.07  167.998-19.39Q 166.948-17.71  165.838-17.71L 165.838-17.71Q 165.268-17.71  163.708-18.43Q 162.148-19.15  160.318-19.15L 160.318-19.15Q 157.488-19.15  157.488-18.1L 157.488-18.1Q 157.488-16.66  160.748-16.22L 160.748-16.22Q 163.918-15.89  166.898-14.4L 166.898-14.4Q 168.288-13.73  169.228-12.07Q 170.15800000000002-10.42  170.15800000000002-7.92Q 170.15800000000002-5.42  169.228-3.67Q 168.288-1.92  166.608-1.06L 166.608-1.06Q 163.538 0.43  158.90800000000002 0.43Q 154.268 0.43  149.99800000000002-2.26Z">
	</path></svg>